<mxfile host="65bd71144e">
    <diagram name="PÃ¡gina-1" id="5_GZvxulszdD-nfJUpY4">
        <mxGraphModel dx="967" dy="668" grid="1" gridSize="10" guides="1" tooltips="1" connect="1" arrows="1" fold="1" page="1" pageScale="1" pageWidth="827" pageHeight="1169" math="0" shadow="0">
            <root>
                <mxCell id="0"/>
                <mxCell id="1" parent="0"/>
                <mxCell id="S3fYBKhmqbnuXUQS7ZH8-14" style="edgeStyle=orthogonalEdgeStyle;rounded=0;orthogonalLoop=1;jettySize=auto;html=1;exitX=1;exitY=0.5;exitDx=0;exitDy=0;entryX=0;entryY=0.5;entryDx=0;entryDy=0;strokeColor=#FFFFFF;" parent="1" source="S3fYBKhmqbnuXUQS7ZH8-10" target="S3fYBKhmqbnuXUQS7ZH8-33" edge="1">
                    <mxGeometry relative="1" as="geometry"/>
                </mxCell>
                <mxCell id="S3fYBKhmqbnuXUQS7ZH8-16" style="edgeStyle=orthogonalEdgeStyle;rounded=0;orthogonalLoop=1;jettySize=auto;html=1;exitX=0.5;exitY=1;exitDx=0;exitDy=0;entryX=0.5;entryY=0;entryDx=0;entryDy=0;strokeColor=#FFFFFF;" parent="1" source="S3fYBKhmqbnuXUQS7ZH8-10" target="S3fYBKhmqbnuXUQS7ZH8-13" edge="1">
                    <mxGeometry relative="1" as="geometry"/>
                </mxCell>
                <mxCell id="S3fYBKhmqbnuXUQS7ZH8-10" value="Is n in the left of row?" style="rhombus;whiteSpace=wrap;html=1;strokeColor=#FFFFFF;" parent="1" vertex="1">
                    <mxGeometry x="130" y="170" width="150" height="90" as="geometry"/>
                </mxCell>
                <mxCell id="S3fYBKhmqbnuXUQS7ZH8-28" style="edgeStyle=orthogonalEdgeStyle;rounded=0;orthogonalLoop=1;jettySize=auto;html=1;exitX=0.5;exitY=0;exitDx=0;exitDy=0;entryX=0.5;entryY=0;entryDx=0;entryDy=0;strokeColor=#FFFFFF;" parent="1" source="S3fYBKhmqbnuXUQS7ZH8-12" target="S3fYBKhmqbnuXUQS7ZH8-10" edge="1">
                    <mxGeometry relative="1" as="geometry">
                        <Array as="points">
                            <mxPoint x="740" y="60"/>
                            <mxPoint x="205" y="60"/>
                        </Array>
                    </mxGeometry>
                </mxCell>
                <mxCell id="S3fYBKhmqbnuXUQS7ZH8-12" value="Add 1 to row" style="rounded=1;whiteSpace=wrap;html=1;strokeColor=#FFFFFF;" parent="1" vertex="1">
                    <mxGeometry x="680" y="197.5" width="120" height="35" as="geometry"/>
                </mxCell>
                <mxCell id="11" style="edgeStyle=orthogonalEdgeStyle;rounded=0;html=1;exitX=0.5;exitY=1;exitDx=0;exitDy=0;strokeColor=#FFFFFF;" edge="1" parent="1" source="S3fYBKhmqbnuXUQS7ZH8-13" target="10">
                    <mxGeometry relative="1" as="geometry"/>
                </mxCell>
                <mxCell id="S3fYBKhmqbnuXUQS7ZH8-13" value="Append count value to results list" style="rounded=1;whiteSpace=wrap;html=1;strokeColor=#FFFFFF;" parent="1" vertex="1">
                    <mxGeometry x="145" y="310" width="120" height="50" as="geometry"/>
                </mxCell>
                <mxCell id="S3fYBKhmqbnuXUQS7ZH8-15" value="yes" style="text;html=1;align=center;verticalAlign=middle;resizable=0;points=[];autosize=1;strokeColor=none;fillColor=none;fontColor=#FFFFFF;spacing=2;fontStyle=1;fontSize=11;" parent="1" vertex="1">
                    <mxGeometry x="265" y="145" width="40" height="30" as="geometry"/>
                </mxCell>
                <mxCell id="S3fYBKhmqbnuXUQS7ZH8-17" value="no" style="text;html=1;align=center;verticalAlign=middle;resizable=0;points=[];autosize=1;strokeColor=none;fillColor=none;spacing=2;fontStyle=1;fontSize=11;fontColor=#FFFFFF;" parent="1" vertex="1">
                    <mxGeometry x="200" y="270" width="40" height="30" as="geometry"/>
                </mxCell>
                <mxCell id="S3fYBKhmqbnuXUQS7ZH8-27" style="edgeStyle=orthogonalEdgeStyle;rounded=0;orthogonalLoop=1;jettySize=auto;html=1;exitX=0.5;exitY=1;exitDx=0;exitDy=0;entryX=0.5;entryY=0;entryDx=0;entryDy=0;strokeColor=#FFFFFF;" parent="1" source="S3fYBKhmqbnuXUQS7ZH8-24" target="S3fYBKhmqbnuXUQS7ZH8-26" edge="1">
                    <mxGeometry relative="1" as="geometry"/>
                </mxCell>
                <mxCell id="S3fYBKhmqbnuXUQS7ZH8-29" style="edgeStyle=orthogonalEdgeStyle;rounded=0;orthogonalLoop=1;jettySize=auto;html=1;exitX=1;exitY=0.5;exitDx=0;exitDy=0;entryX=0;entryY=0.5;entryDx=0;entryDy=0;strokeColor=#FFFFFF;" parent="1" source="S3fYBKhmqbnuXUQS7ZH8-24" target="S3fYBKhmqbnuXUQS7ZH8-12" edge="1">
                    <mxGeometry relative="1" as="geometry"/>
                </mxCell>
                <mxCell id="S3fYBKhmqbnuXUQS7ZH8-24" value="Does row + 1 exists?" style="rhombus;whiteSpace=wrap;html=1;strokeColor=#FFFFFF;" parent="1" vertex="1">
                    <mxGeometry x="480" y="175" width="160" height="80" as="geometry"/>
                </mxCell>
                <mxCell id="17" style="edgeStyle=orthogonalEdgeStyle;rounded=0;html=1;exitX=0.5;exitY=1;exitDx=0;exitDy=0;entryX=0.5;entryY=0;entryDx=0;entryDy=0;strokeColor=#FFFFFF;" edge="1" parent="1" source="S3fYBKhmqbnuXUQS7ZH8-26" target="16">
                    <mxGeometry relative="1" as="geometry"/>
                </mxCell>
                <mxCell id="S3fYBKhmqbnuXUQS7ZH8-26" value="Stop calls" style="rounded=1;whiteSpace=wrap;html=1;fillColor=default;strokeColor=#FFFFFF;" parent="1" vertex="1">
                    <mxGeometry x="500" y="310" width="120" height="30" as="geometry"/>
                </mxCell>
                <mxCell id="S3fYBKhmqbnuXUQS7ZH8-30" value="yes" style="text;html=1;align=center;verticalAlign=middle;resizable=0;points=[];autosize=1;strokeColor=none;fillColor=none;fontColor=#FFFFFF;spacing=2;fontStyle=1;fontSize=11;" parent="1" vertex="1">
                    <mxGeometry x="640" y="190" width="40" height="30" as="geometry"/>
                </mxCell>
                <mxCell id="S3fYBKhmqbnuXUQS7ZH8-31" value="no" style="text;html=1;align=center;verticalAlign=middle;resizable=0;points=[];autosize=1;strokeColor=none;fillColor=none;fontColor=#FFFFFF;spacing=2;fontStyle=1;fontSize=11;" parent="1" vertex="1">
                    <mxGeometry x="530" y="270" width="40" height="30" as="geometry"/>
                </mxCell>
                <mxCell id="S3fYBKhmqbnuXUQS7ZH8-34" style="edgeStyle=orthogonalEdgeStyle;rounded=0;orthogonalLoop=1;jettySize=auto;html=1;entryX=0;entryY=0.5;entryDx=0;entryDy=0;strokeColor=#FFFFFF;" parent="1" source="5" target="S3fYBKhmqbnuXUQS7ZH8-24" edge="1">
                    <mxGeometry relative="1" as="geometry"/>
                </mxCell>
                <mxCell id="6" style="edgeStyle=orthogonalEdgeStyle;rounded=0;html=1;exitX=0.5;exitY=1;exitDx=0;exitDy=0;entryX=0.5;entryY=0;entryDx=0;entryDy=0;strokeColor=#FFFFFF;" edge="1" parent="1" source="S3fYBKhmqbnuXUQS7ZH8-33" target="4">
                    <mxGeometry relative="1" as="geometry"/>
                </mxCell>
                <mxCell id="S3fYBKhmqbnuXUQS7ZH8-33" value="Add 1 to count" style="rounded=1;whiteSpace=wrap;html=1;strokeColor=#FFFFFF;" parent="1" vertex="1">
                    <mxGeometry x="320" y="100" width="120" height="40" as="geometry"/>
                </mxCell>
                <mxCell id="S3fYBKhmqbnuXUQS7ZH8-37" value="Merge results list and delete list" style="rounded=1;whiteSpace=wrap;html=1;strokeColor=#FFFFFF;" parent="1" vertex="1">
                    <mxGeometry x="500" y="440" width="120" height="60" as="geometry"/>
                </mxCell>
                <mxCell id="3" style="edgeStyle=orthogonalEdgeStyle;html=1;exitX=1;exitY=0.5;exitDx=0;exitDy=0;entryX=0;entryY=0;entryDx=0;entryDy=0;rounded=0;strokeColor=#FFFFFF;" edge="1" parent="1" source="S3fYBKhmqbnuXUQS7ZH8-39" target="S3fYBKhmqbnuXUQS7ZH8-10">
                    <mxGeometry relative="1" as="geometry"/>
                </mxCell>
                <mxCell id="S3fYBKhmqbnuXUQS7ZH8-39" value="START" style="ellipse;whiteSpace=wrap;html=1;strokeColor=#FFFFFF;" parent="1" vertex="1">
                    <mxGeometry x="80" y="120" width="40" height="40" as="geometry"/>
                </mxCell>
                <mxCell id="7" style="edgeStyle=orthogonalEdgeStyle;rounded=0;html=1;exitX=0.5;exitY=1;exitDx=0;exitDy=0;entryX=0.5;entryY=0;entryDx=0;entryDy=0;strokeColor=#FFFFFF;" edge="1" parent="1" source="4" target="5">
                    <mxGeometry relative="1" as="geometry"/>
                </mxCell>
                <mxCell id="4" value="Delete one zero from delete list" style="rounded=1;whiteSpace=wrap;html=1;strokeColor=#FFFFFF;" vertex="1" parent="1">
                    <mxGeometry x="320" y="160" width="120" height="60" as="geometry"/>
                </mxCell>
                <mxCell id="5" value="Add 1 to n" style="rounded=1;whiteSpace=wrap;html=1;strokeColor=#FFFFFF;" vertex="1" parent="1">
                    <mxGeometry x="320" y="240" width="120" height="30" as="geometry"/>
                </mxCell>
                <mxCell id="13" style="edgeStyle=orthogonalEdgeStyle;rounded=0;html=1;exitX=0.5;exitY=1;exitDx=0;exitDy=0;entryX=0.5;entryY=0;entryDx=0;entryDy=0;strokeColor=#FFFFFF;" edge="1" parent="1" source="8" target="9">
                    <mxGeometry relative="1" as="geometry"/>
                </mxCell>
                <mxCell id="8" value="Delete one zero from delete list" style="rounded=1;whiteSpace=wrap;html=1;strokeColor=#FFFFFF;" vertex="1" parent="1">
                    <mxGeometry x="145" y="450" width="120" height="60" as="geometry"/>
                </mxCell>
                <mxCell id="15" style="edgeStyle=orthogonalEdgeStyle;rounded=0;html=1;exitX=0;exitY=0.5;exitDx=0;exitDy=0;entryX=0;entryY=0.5;entryDx=0;entryDy=0;strokeColor=#FFFFFF;" edge="1" parent="1" source="9" target="S3fYBKhmqbnuXUQS7ZH8-10">
                    <mxGeometry relative="1" as="geometry">
                        <Array as="points">
                            <mxPoint x="100" y="545"/>
                            <mxPoint x="100" y="215"/>
                        </Array>
                    </mxGeometry>
                </mxCell>
                <mxCell id="9" value="Add 1 to n" style="rounded=1;whiteSpace=wrap;html=1;strokeColor=#FFFFFF;" vertex="1" parent="1">
                    <mxGeometry x="145" y="530" width="120" height="30" as="geometry"/>
                </mxCell>
                <mxCell id="12" style="edgeStyle=orthogonalEdgeStyle;rounded=0;html=1;exitX=0.5;exitY=1;exitDx=0;exitDy=0;entryX=0.5;entryY=0;entryDx=0;entryDy=0;strokeColor=#FFFFFF;" edge="1" parent="1" source="10" target="8">
                    <mxGeometry relative="1" as="geometry"/>
                </mxCell>
                <mxCell id="10" value="Set count value as 0" style="rounded=1;whiteSpace=wrap;html=1;strokeColor=#FFFFFF;" vertex="1" parent="1">
                    <mxGeometry x="145" y="380" width="120" height="50" as="geometry"/>
                </mxCell>
                <mxCell id="18" style="edgeStyle=orthogonalEdgeStyle;rounded=0;html=1;exitX=0.5;exitY=1;exitDx=0;exitDy=0;entryX=0.5;entryY=0;entryDx=0;entryDy=0;strokeColor=#FFFFFF;" edge="1" parent="1" source="16" target="S3fYBKhmqbnuXUQS7ZH8-37">
                    <mxGeometry relative="1" as="geometry"/>
                </mxCell>
                <mxCell id="16" value="Delete one zero from delete list" style="rounded=1;whiteSpace=wrap;html=1;strokeColor=#FFFFFF;" vertex="1" parent="1">
                    <mxGeometry x="500" y="360" width="120" height="60" as="geometry"/>
                </mxCell>
            </root>
        </mxGraphModel>
    </diagram>
</mxfile>